<?xml version="1.0" encoding="UTF-8" standalone="no"?>
<!DOCTYPE svg PUBLIC "-//W3C//DTD SVG 1.1//EN" "http://www.w3.org/Graphics/SVG/1.1/DTD/svg11.dtd">
<svg width="100%" height="100%" viewBox="0 0 100 100" version="1.1" xmlns="http://www.w3.org/2000/svg" xmlns:xlink="http://www.w3.org/1999/xlink" xml:space="preserve" xmlns:serif="http://www.serif.com/" style="fill-rule:evenodd;clip-rule:evenodd;stroke-linejoin:round;stroke-miterlimit:2;">
    <g id="Artboard1" transform="matrix(0.575495,0,0,0.662297,114.503,56.0342)">
        <rect x="-198.965" y="-84.606" width="173.764" height="150.99" style="fill:none;"/>
        <g transform="matrix(1.73764,0,0,1.59387,-198.965,-77.8095)">
            <path d="M47.297,1.82C47.697,0.73 48.782,0 50,0C51.218,0 52.303,0.73 52.703,1.82L62.348,28.071C62.581,28.705 63.013,29.256 63.587,29.651C64.16,30.045 64.847,30.264 65.556,30.278L94.89,30.856C96.108,30.88 97.176,31.632 97.553,32.729C97.929,33.826 97.531,35.029 96.561,35.727L73.187,52.528C72.623,52.934 72.203,53.494 71.984,54.132C71.765,54.771 71.757,55.458 71.962,56.1L80.447,82.708C80.799,83.813 80.375,85.007 79.389,85.686C78.404,86.364 77.073,86.377 76.073,85.718L51.982,69.852C51.4,69.468 50.709,69.263 50,69.263C49.291,69.263 48.6,69.468 48.018,69.852L23.927,85.718C22.927,86.377 21.596,86.364 20.611,85.686C19.625,85.007 19.201,83.813 19.553,82.708L28.038,56.1C28.243,55.458 28.235,54.771 28.016,54.132C27.797,53.494 27.377,52.934 26.813,52.528L3.439,35.727C2.469,35.029 2.071,33.826 2.447,32.729C2.824,31.632 3.892,30.88 5.11,30.856L34.444,30.278C35.153,30.264 35.84,30.045 36.413,29.651C36.987,29.256 37.419,28.705 37.652,28.071L47.297,1.82Z" style="fill:white;"/>
        </g>
    </g>
</svg>
