<?xml version="1.0" encoding="UTF-8" standalone="no"?>
<!DOCTYPE svg PUBLIC "-//W3C//DTD SVG 1.1//EN" "http://www.w3.org/Graphics/SVG/1.1/DTD/svg11.dtd">
<svg width="100%" height="100%" viewBox="0 0 100 100" version="1.1" xmlns="http://www.w3.org/2000/svg" xmlns:xlink="http://www.w3.org/1999/xlink" xml:space="preserve" xmlns:serif="http://www.serif.com/" style="fill-rule:evenodd;clip-rule:evenodd;stroke-linejoin:round;stroke-miterlimit:2;">
    <rect id="Artboard2" x="0" y="0" width="100" height="100" style="fill:none;"/>
    <clipPath id="_clip1">
        <rect x="0" y="0" width="100" height="100"/>
    </clipPath>
    <g clip-path="url(#_clip1)">
        <path d="M100,25.313c0,-13.971 -11.342,-25.313 -25.313,-25.313l-49.374,0c-13.971,0 -25.313,11.342 -25.313,25.313l-0,49.374c-0,13.971 11.342,25.313 25.313,25.313l49.374,-0c13.971,-0 25.313,-11.342 25.313,-25.313l0,-49.374Z" style="fill:rgb(35,45,53);"/>
        <path d="M50.951,26.174c-0.134,-0.412 -0.518,-0.691 -0.951,-0.691c-0.433,-0 -0.817,0.279 -0.951,0.691l-5.613,17.274c0,0 -18.163,0 -18.163,0c-0.434,0 -0.818,0.279 -0.952,0.691c-0.133,0.412 0.013,0.864 0.364,1.118l14.694,10.677c0,-0 -5.612,17.274 -5.612,17.274c-0.134,0.412 0.012,0.864 0.363,1.118c0.35,0.255 0.825,0.255 1.175,0l14.695,-10.676c0,-0 14.695,10.676 14.695,10.676c0.35,0.255 0.825,0.255 1.175,0c0.351,-0.254 0.497,-0.706 0.363,-1.118l-5.612,-17.274c-0,-0 14.694,-10.677 14.694,-10.677c0.351,-0.254 0.497,-0.706 0.364,-1.118c-0.134,-0.412 -0.518,-0.691 -0.952,-0.691l-18.163,0c-0,0 -5.613,-17.274 -5.613,-17.274Z" style="fill:rgb(255,238,125);"/>
    </g>
</svg>
